<?xml version="1.0" encoding="UTF-8"?>
<!DOCTYPE svg PUBLIC "-//W3C//DTD SVG 1.1//EN" "http://www.w3.org/Graphics/SVG/1.1/DTD/svg11.dtd">
<svg xmlns="http://www.w3.org/2000/svg" version="1.1" width="300px" height="300px" style="shape-rendering:geometricPrecision; text-rendering:geometricPrecision; image-rendering:optimizeQuality; fill-rule:evenodd; clip-rule:evenodd" xmlns:xlink="http://www.w3.org/1999/xlink">
<g><path style="opacity:0.978" fill="#fefefd" d="M 171.5,12.5 C 204.034,10.3321 225.2,24.6654 235,55.5C 236.745,72.855 236.411,90.1883 234,107.5C 233.333,116.833 233.333,126.167 234,135.5C 247.159,158.154 250.159,182.154 243,207.5C 235.894,226.934 223.394,241.768 205.5,252C 188.826,260.586 171.159,265.919 152.5,268C 130.092,288.068 105.425,291.401 78.5,278C 64.6695,268.854 56.5029,256.02 54,239.5C 53.6492,227.16 53.1492,214.827 52.5,202.5C 53.4309,189.502 53.5976,176.502 53,163.5C 54.0883,155.566 56.755,148.233 61,141.5C 57.2954,107.023 63.962,74.6898 81,44.5C 101.244,23.1936 126.078,14.3603 155.5,18C 160.846,15.8303 166.179,13.997 171.5,12.5 Z M 186.5,39.5 C 186.833,39.5 187.167,39.5 187.5,39.5C 193.735,40.9493 199.068,43.9493 203.5,48.5C 205.45,51.4058 207.117,54.4058 208.5,57.5C 209.4,67.8015 209.733,78.1348 209.5,88.5C 208.518,91.9619 208.185,95.6286 208.5,99.5C 208.5,99.8333 208.5,100.167 208.5,100.5C 207.104,108.845 206.438,117.178 206.5,125.5C 206.926,130.032 205.926,134.199 203.5,138C 204.066,138.995 204.733,139.828 205.5,140.5C 209.095,145.365 212.428,150.365 215.5,155.5C 215.629,157.216 215.962,158.883 216.5,160.5C 216.5,161.167 216.833,161.5 217.5,161.5C 220.514,172.351 221.181,183.351 219.5,194.5C 217.997,198.341 216.664,202.341 215.5,206.5C 214.11,207.899 213.11,209.566 212.5,211.5C 211.662,211.842 211.328,212.508 211.5,213.5C 203.709,221.886 194.709,228.552 184.5,233.5C 174.786,236.343 165.119,239.01 155.5,241.5C 153.5,241.5 151.5,241.5 149.5,241.5C 146.15,241.335 142.817,241.502 139.5,242C 137.574,242.422 136.574,243.589 136.5,245.5C 135.026,246.436 134.026,247.77 133.5,249.5C 127.655,254.754 120.989,258.42 113.5,260.5C 108.786,260.647 104.119,260.314 99.5,259.5C 98.0697,258.463 96.403,257.796 94.5,257.5C 94.0269,256.094 93.0269,255.427 91.5,255.5C 89.5,252.833 87.1667,250.5 84.5,248.5C 84.573,246.973 83.9063,245.973 82.5,245.5C 82.3964,243.297 81.7298,241.297 80.5,239.5C 79.849,216.004 79.1823,192.504 78.5,169C 79.2497,165.837 79.9164,162.67 80.5,159.5C 82.6989,154.958 85.6989,150.958 89.5,147.5C 90.4778,147.189 91.1445,146.522 91.5,145.5C 90.391,142.292 89.0577,139.292 87.5,136.5C 87.5,136.167 87.5,135.833 87.5,135.5C 86.8058,130.195 86.4724,124.862 86.5,119.5C 86.514,111.436 87.1807,103.436 88.5,95.5C 89.7682,93.0948 90.4349,90.4282 90.5,87.5C 93.1104,78.5929 96.6104,69.9262 101,61.5C 104.062,58.2678 107.229,55.2678 110.5,52.5C 112.027,52.573 113.027,51.9063 113.5,50.5C 115.819,50.0075 117.819,49.0075 119.5,47.5C 124.776,46.245 130.109,45.245 135.5,44.5C 135.833,44.5 136.167,44.5 136.5,44.5C 142.348,44.6131 148.014,44.6131 153.5,44.5C 155.295,45.2651 157.128,45.9318 159,46.5C 162.797,44.0221 166.631,41.6887 170.5,39.5C 175.862,38.3825 181.196,38.3825 186.5,39.5 Z"/></g>
<g><path style="opacity:0.416" fill="#fbc98c" d="M 186.5,39.5 C 181.196,38.3825 175.862,38.3825 170.5,39.5C 170.5,39.1667 170.5,38.8333 170.5,38.5C 175.472,37.5784 180.472,37.4117 185.5,38C 186.056,38.3826 186.389,38.8826 186.5,39.5 Z"/></g>
<g><path style="opacity:1" fill="#fee2ba" d="M 170.5,38.5 C 170.5,38.8333 170.5,39.1667 170.5,39.5C 166.631,41.6887 162.797,44.0221 159,46.5C 157.128,45.9318 155.295,45.2651 153.5,44.5C 148.014,44.6131 142.348,44.6131 136.5,44.5C 136.611,43.8826 136.944,43.3826 137.5,43C 145.82,43.0539 154.153,43.2206 162.5,43.5C 162.5,42.5 162.5,41.5 162.5,40.5C 165.025,39.36 167.692,38.6933 170.5,38.5 Z"/></g>
<g><path style="opacity:1" fill="#fce7c8" d="M 187.5,39.5 C 189.288,38.3775 191.288,38.2109 193.5,39C 195.597,40.6104 197.93,41.7771 200.5,42.5C 201.559,44.5336 202.559,46.5336 203.5,48.5C 199.068,43.9493 193.735,40.9493 187.5,39.5 Z"/></g>
<g><path style="opacity:1" fill="#fce4bb" d="M 135.5,44.5 C 130.109,45.245 124.776,46.245 119.5,47.5C 119.577,46.2502 120.244,45.4169 121.5,45C 126.302,43.634 130.968,43.4674 135.5,44.5 Z"/></g>
<g><path style="opacity:1" fill="#fdedcd" d="M 119.5,47.5 C 117.819,49.0075 115.819,50.0075 113.5,50.5C 111.973,50.427 110.973,51.0937 110.5,52.5C 107.229,55.2678 104.062,58.2678 101,61.5C 96.6104,69.9262 93.1104,78.5929 90.5,87.5C 90.1667,87.5 89.8333,87.5 89.5,87.5C 88.6548,84.1736 88.1548,80.8403 88,77.5C 88.3333,77.1667 88.6667,76.8333 89,76.5C 89.3333,78.5 89.6667,80.5 90,82.5C 93.7402,75.1762 96.7402,67.5095 99,59.5C 100.506,57.8258 102.339,56.8258 104.5,56.5C 104.343,55.1266 104.51,53.7932 105,52.5C 106.011,53.3366 107.178,53.67 108.5,53.5C 108.5,52.1667 108.5,50.8333 108.5,49.5C 112.212,49.0392 115.879,48.3725 119.5,47.5 Z"/></g>
<g><path style="opacity:0.027" fill="#fac281" d="M 113.5,50.5 C 113.027,51.9063 112.027,52.573 110.5,52.5C 110.973,51.0937 111.973,50.427 113.5,50.5 Z"/></g>
<g><path style="opacity:1" fill="#fddeb3" d="M 203.5,48.5 C 207.39,50.1039 209.056,53.1039 208.5,57.5C 207.117,54.4058 205.45,51.4058 203.5,48.5 Z"/></g>
<g><path style="opacity:1" fill="#fefdfb" d="M 175.5,61.5 C 178.167,61.5 180.833,61.5 183.5,61.5C 183.343,62.8734 183.51,64.2068 184,65.5C 184.414,65.0426 184.914,64.7093 185.5,64.5C 185.833,68.6667 186.167,72.8333 186.5,77C 185.106,93.8066 183.939,110.64 183,127.5C 179.93,130.734 176.096,132.067 171.5,131.5C 171.851,127.841 170.851,124.841 168.5,122.5C 168.5,121.167 167.833,120.5 166.5,120.5C 166.5,120.167 166.5,119.833 166.5,119.5C 167.746,116.707 167.413,114.04 165.5,111.5C 163.857,103.888 161.69,96.5547 159,89.5C 156.299,86.2395 153.132,83.5729 149.5,81.5C 147.302,81.1249 145.302,80.4582 143.5,79.5C 140.988,78.1326 138.655,78.466 136.5,80.5C 134.576,82.695 132.909,85.0283 131.5,87.5C 129.926,89.1016 129.259,91.1016 129.5,93.5C 127.878,97.2841 126.545,101.284 125.5,105.5C 125.543,106.416 125.876,107.083 126.5,107.5C 126.5,108.167 126.5,108.833 126.5,109.5C 125.195,111.397 124.529,113.731 124.5,116.5C 124.529,119.269 125.195,121.603 126.5,123.5C 126.5,123.833 126.5,124.167 126.5,124.5C 125.988,127.632 125.988,130.965 126.5,134.5C 130.024,134.929 133.024,136.429 135.5,139C 137.473,139.495 139.473,139.662 141.5,139.5C 143.099,139.768 144.432,139.434 145.5,138.5C 145.833,138.5 146.167,138.5 146.5,138.5C 148.279,140.344 150.612,141.01 153.5,140.5C 154.5,140.5 155.5,140.5 156.5,140.5C 163.401,142.283 170.401,143.949 177.5,145.5C 177.804,146.15 178.137,146.817 178.5,147.5C 181.707,148.933 184.707,150.6 187.5,152.5C 187.213,156.215 188.88,158.548 192.5,159.5C 192.53,162.852 193.863,165.518 196.5,167.5C 198.416,178.119 197.75,188.453 194.5,198.5C 192.738,199.262 191.738,200.596 191.5,202.5C 191.5,203.167 191.167,203.5 190.5,203.5C 188.396,203.201 186.396,203.534 184.5,204.5C 185.807,205.865 185.807,207.198 184.5,208.5C 181.689,208.826 179.022,209.659 176.5,211C 175.748,211.671 175.414,212.504 175.5,213.5C 164.92,215.455 154.253,217.122 143.5,218.5C 137.558,218.859 131.891,217.859 126.5,215.5C 126.027,214.094 125.027,213.427 123.5,213.5C 122.068,211.353 120.235,211.02 118,212.5C 118.138,219.144 118.305,225.811 118.5,232.5C 116.736,233.326 115.402,234.659 114.5,236.5C 111.15,236.665 107.817,236.498 104.5,236C 103.773,234.601 103.273,233.101 103,231.5C 102.333,210.167 102.333,188.833 103,167.5C 104.397,165.93 105.897,164.596 107.5,163.5C 111.311,161.882 114.811,162.549 118,165.5C 118.824,172.146 120.324,178.479 122.5,184.5C 121.846,188.839 122.846,192.673 125.5,196C 128.233,196.904 130.567,198.404 132.5,200.5C 134.749,201.08 136.415,202.413 137.5,204.5C 140.524,206.782 144.024,207.782 148,207.5C 152.897,207.068 157.731,206.234 162.5,205C 164.066,204.392 165.4,203.558 166.5,202.5C 168.102,200.926 170.102,200.259 172.5,200.5C 175.732,200.228 177.732,198.562 178.5,195.5C 179.496,195.586 180.329,195.252 181,194.5C 184.12,186.458 184.12,178.458 181,170.5C 180.502,168.456 179.335,167.122 177.5,166.5C 176.833,163.833 175.167,162.167 172.5,161.5C 171.656,159.241 169.989,158.241 167.5,158.5C 166.316,157.312 166.316,156.145 167.5,155C 156.566,153.289 145.566,152.455 134.5,152.5C 129.65,150.246 124.65,148.246 119.5,146.5C 118.5,145.167 117.5,143.833 116.5,142.5C 114.115,138.225 112.115,133.725 110.5,129C 109.549,119.845 109.549,110.678 110.5,101.5C 111.117,101.389 111.617,101.056 112,100.5C 113.935,93.3252 115.435,85.9919 116.5,78.5C 118.208,76.2824 120.208,74.1157 122.5,72C 125.793,71.8549 128.126,70.3549 129.5,67.5C 129.833,67.5 130.167,67.5 130.5,67.5C 138.031,66.6316 145.364,66.2982 152.5,66.5C 153.492,66.3284 154.158,66.6618 154.5,67.5C 154.062,67.4346 153.728,67.6012 153.5,68C 158.173,71.6705 163.173,74.8371 168.5,77.5C 169.5,77.5 170.5,77.5 171.5,77.5C 172.693,77.0296 173.36,76.0296 173.5,74.5C 173.221,72.6568 172.887,70.8235 172.5,69C 173.109,66.2915 174.109,63.7915 175.5,61.5 Z"/></g>
<g><path style="opacity:1" fill="#fef4da" d="M 188.5,64.5 C 187.508,71.9818 187.175,79.6484 187.5,87.5C 188.092,91.7611 188.092,96.0944 187.5,100.5C 185.631,102.635 184.964,105.302 185.5,108.5C 185.433,109.959 185.766,111.292 186.5,112.5C 185.883,112.611 185.383,112.944 185,113.5C 184.742,119.215 184.242,124.882 183.5,130.5C 178.762,134.423 174.095,134.423 169.5,130.5C 168.908,127.873 168.575,125.206 168.5,122.5C 170.851,124.841 171.851,127.841 171.5,131.5C 176.096,132.067 179.93,130.734 183,127.5C 183.939,110.64 185.106,93.8066 186.5,77C 186.167,72.8333 185.833,68.6667 185.5,64.5C 184.914,64.7093 184.414,65.0426 184,65.5C 183.51,64.2068 183.343,62.8734 183.5,61.5C 180.833,61.5 178.167,61.5 175.5,61.5C 178.576,59.0906 181.909,58.9239 185.5,61C 186.71,62.0391 187.71,63.2058 188.5,64.5 Z"/></g>
<g><path style="opacity:0.761" fill="#fbdaa7" d="M 152.5,66.5 C 145.364,66.2982 138.031,66.6316 130.5,67.5C 137.56,63.9452 144.893,63.6119 152.5,66.5 Z"/></g>
<g><path style="opacity:0.106" fill="#efbd80" d="M 208.5,57.5 C 209.931,58.7804 210.598,60.4471 210.5,62.5C 210.826,71.3494 210.493,80.0161 209.5,88.5C 209.733,78.1348 209.4,67.8015 208.5,57.5 Z"/></g>
<g><path style="opacity:0.867" fill="#fce1b8" d="M 129.5,67.5 C 128.126,70.3549 125.793,71.8549 122.5,72C 120.208,74.1157 118.208,76.2824 116.5,78.5C 118.709,72.2884 123.043,68.6217 129.5,67.5 Z"/></g>
<g><path style="opacity:0.396" fill="#f5cc91" d="M 175.5,61.5 C 174.109,63.7915 173.109,66.2915 172.5,69C 172.887,70.8235 173.221,72.6568 173.5,74.5C 173.36,76.0296 172.693,77.0296 171.5,77.5C 171.834,73.5793 172.001,69.5793 172,65.5C 172.66,63.6763 173.827,62.343 175.5,61.5 Z"/></g>
<g><path style="opacity:0.486" fill="#fdd89e" d="M 188.5,64.5 C 189.406,69.1043 189.74,73.6043 189.5,78C 189.054,81.3501 188.388,84.5167 187.5,87.5C 187.175,79.6484 187.508,71.9818 188.5,64.5 Z"/></g>
<g><path style="opacity:1" fill="#fde2bb" d="M 154.5,67.5 C 160.232,69.3638 164.899,72.6972 168.5,77.5C 163.173,74.8371 158.173,71.6705 153.5,68C 153.728,67.6012 154.062,67.4346 154.5,67.5 Z"/></g>
<g><path style="opacity:0.412" fill="#f6ce9c" d="M 143.5,79.5 C 141.139,79.6741 138.806,80.0074 136.5,80.5C 138.655,78.466 140.988,78.1326 143.5,79.5 Z"/></g>
<g><path style="opacity:0.58" fill="#fbc785" d="M 113.5,85.5 C 113.59,88.1522 112.924,90.4855 111.5,92.5C 111.41,89.8478 112.076,87.5145 113.5,85.5 Z"/></g>
<g><path style="opacity:1" fill="#feebc3" d="M 210.5,62.5 C 211.659,72.992 211.825,83.6586 211,94.5C 210.015,96.1749 209.181,97.8415 208.5,99.5C 208.185,95.6286 208.518,91.9619 209.5,88.5C 210.493,80.0161 210.826,71.3494 210.5,62.5 Z"/></g>
<g><path style="opacity:1" fill="#feeed0" d="M 89.5,88.5 C 88.7814,90.7638 88.448,93.0971 88.5,95.5C 85.6538,103.353 84.9871,111.353 86.5,119.5C 86.4724,124.862 86.8058,130.195 87.5,135.5C 86.0337,134.653 85.2004,133.32 85,131.5C 83.7712,117.32 84.6045,103.32 87.5,89.5C 88.1835,89.1373 88.8501,88.8039 89.5,88.5 Z"/></g>
<g><path style="opacity:0.42" fill="#facd8c" d="M 131.5,87.5 C 131.405,89.7857 130.738,91.7857 129.5,93.5C 129.259,91.1016 129.926,89.1016 131.5,87.5 Z"/></g>
<g><path style="opacity:1" fill="#fff5d9" d="M 116.5,78.5 C 115.435,85.9919 113.935,93.3252 112,100.5C 111.617,101.056 111.117,101.389 110.5,101.5C 110.963,98.5176 111.296,95.5176 111.5,92.5C 112.924,90.4855 113.59,88.1522 113.5,85.5C 113.935,82.8427 114.935,80.5093 116.5,78.5 Z"/></g>
<g><path style="opacity:0.075" fill="#f2ca89" d="M 89.5,87.5 C 89.8333,87.5 90.1667,87.5 90.5,87.5C 90.4349,90.4282 89.7682,93.0948 88.5,95.5C 88.448,93.0971 88.7814,90.7638 89.5,88.5C 89.5,88.1667 89.5,87.8333 89.5,87.5 Z"/></g>
<g><path style="opacity:0.337" fill="#f6c281" d="M 111.5,92.5 C 111.296,95.5176 110.963,98.5176 110.5,101.5C 109.712,104.887 108.712,108.22 107.5,111.5C 107.831,104.841 109.164,98.5072 111.5,92.5 Z"/></g>
<g><path style="opacity:0.031" fill="#fac684" d="M 129.5,93.5 C 128.815,98.2387 127.815,102.905 126.5,107.5C 125.876,107.083 125.543,106.416 125.5,105.5C 126.545,101.284 127.878,97.2841 129.5,93.5 Z"/></g>
<g><path style="opacity:0.999" fill="#fedbad" d="M 149.5,81.5 C 153.132,83.5729 156.299,86.2395 159,89.5C 161.69,96.5547 163.857,103.888 165.5,111.5C 162.65,104.144 159.483,96.8108 156,89.5C 153.999,86.6693 151.833,84.0026 149.5,81.5 Z"/></g>
<g><path style="opacity:0.078" fill="#f7c287" d="M 88.5,95.5 C 87.1807,103.436 86.514,111.436 86.5,119.5C 84.9871,111.353 85.6538,103.353 88.5,95.5 Z"/></g>
<g><path style="opacity:0.486" fill="#fbc98c" d="M 187.5,100.5 C 187.198,103.373 186.531,106.039 185.5,108.5C 184.964,105.302 185.631,102.635 187.5,100.5 Z"/></g>
<g><path style="opacity:1" fill="#fffae7" d="M 110.5,101.5 C 109.549,110.678 109.549,119.845 110.5,129C 112.115,133.725 114.115,138.225 116.5,142.5C 115.167,141.5 113.833,140.5 112.5,139.5C 112.008,137.181 111.008,135.181 109.5,133.5C 108.376,126.717 107.376,120.051 106.5,113.5C 106.833,112.833 107.167,112.167 107.5,111.5C 108.712,108.22 109.712,104.887 110.5,101.5 Z"/></g>
<g><path style="opacity:0.031" fill="#f7c991" d="M 165.5,111.5 C 167.413,114.04 167.746,116.707 166.5,119.5C 165.908,116.873 165.575,114.206 165.5,111.5 Z"/></g>
<g><path style="opacity:0.169" fill="#f1cd9c" d="M 126.5,109.5 C 125.222,114.135 125.222,118.802 126.5,123.5C 125.195,121.603 124.529,119.269 124.5,116.5C 124.529,113.731 125.195,111.397 126.5,109.5 Z"/></g>
<g><path style="opacity:0.78" fill="#fbd6a4" d="M 208.5,100.5 C 208.827,110.681 208.494,120.681 207.5,130.5C 207.784,128.585 207.451,126.919 206.5,125.5C 206.438,117.178 207.104,108.845 208.5,100.5 Z"/></g>
<g><path style="opacity:0.51" fill="#fbcc9b" d="M 186.5,112.5 C 186.666,117.511 186.499,122.511 186,127.5C 185.623,128.942 184.79,129.942 183.5,130.5C 184.242,124.882 184.742,119.215 185,113.5C 185.383,112.944 185.883,112.611 186.5,112.5 Z"/></g>
<g><path style="opacity:0.518" fill="#fac594" d="M 106.5,113.5 C 107.376,120.051 108.376,126.717 109.5,133.5C 107.989,131.524 107.156,129.191 107,126.5C 106.501,122.179 106.334,117.846 106.5,113.5 Z"/></g>
<g><path style="opacity:0.259" fill="#f7c185" d="M 166.5,120.5 C 167.833,120.5 168.5,121.167 168.5,122.5C 168.575,125.206 168.908,127.873 169.5,130.5C 167.952,127.425 166.952,124.091 166.5,120.5 Z"/></g>
<g><path style="opacity:1" fill="#feecce" d="M 126.5,124.5 C 127.267,130.256 130.267,134.256 135.5,136.5C 137.371,137.797 139.371,138.797 141.5,139.5C 139.473,139.662 137.473,139.495 135.5,139C 133.024,136.429 130.024,134.929 126.5,134.5C 125.988,130.965 125.988,127.632 126.5,124.5 Z"/></g>
<g><path style="opacity:0.102" fill="#f3c487" d="M 109.5,133.5 C 111.008,135.181 112.008,137.181 112.5,139.5C 110.461,138.089 109.461,136.089 109.5,133.5 Z"/></g>
<g><path style="opacity:0.627" fill="#fbd08c" d="M 135.5,136.5 C 138.833,137.167 142.167,137.833 145.5,138.5C 144.432,139.434 143.099,139.768 141.5,139.5C 139.371,138.797 137.371,137.797 135.5,136.5 Z"/></g>
<g><path style="opacity:0.565" fill="#f8c57e" d="M 206.5,125.5 C 207.451,126.919 207.784,128.585 207.5,130.5C 207.371,132.216 207.038,133.883 206.5,135.5C 205.76,137.255 205.426,138.922 205.5,140.5C 204.733,139.828 204.066,138.995 203.5,138C 205.926,134.199 206.926,130.032 206.5,125.5 Z"/></g>
<g><path style="opacity:0.498" fill="#f4ce97" d="M 146.5,138.5 C 149.152,138.41 151.485,139.076 153.5,140.5C 150.612,141.01 148.279,140.344 146.5,138.5 Z"/></g>
<g><path style="opacity:0.996" fill="#fbd9b0" d="M 87.5,136.5 C 89.0577,139.292 90.391,142.292 91.5,145.5C 91.1445,146.522 90.4778,147.189 89.5,147.5C 88.8333,143.833 88.1667,140.167 87.5,136.5 Z"/></g>
<g><path style="opacity:0.043" fill="#f9c794" d="M 112.5,139.5 C 113.833,140.5 115.167,141.5 116.5,142.5C 117.5,143.833 118.5,145.167 119.5,146.5C 116.167,145.167 113.833,142.833 112.5,139.5 Z"/></g>
<g><path style="opacity:1" fill="#fbd6a6" d="M 177.5,145.5 C 170.401,143.949 163.401,142.283 156.5,140.5C 163.907,139.845 170.907,141.512 177.5,145.5 Z"/></g>
<g><path style="opacity:1" fill="#fdeac2" d="M 119.5,146.5 C 124.65,148.246 129.65,150.246 134.5,152.5C 128.675,152.416 123.675,150.416 119.5,146.5 Z"/></g>
<g><path style="opacity:1" fill="#fddfb5" d="M 177.5,145.5 C 181.542,146.851 184.875,149.185 187.5,152.5C 184.707,150.6 181.707,148.933 178.5,147.5C 178.137,146.817 177.804,146.15 177.5,145.5 Z"/></g>
<g><path style="opacity:1" fill="#ffeed4" d="M 206.5,135.5 C 207.562,138.516 208.729,141.516 210,144.5C 211.506,146.174 213.339,147.174 215.5,147.5C 215.458,151.009 216.124,154.342 217.5,157.5C 216.833,156.833 216.167,156.167 215.5,155.5C 212.428,150.365 209.095,145.365 205.5,140.5C 205.426,138.922 205.76,137.255 206.5,135.5 Z"/></g>
<g><path style="opacity:1" fill="#fde7c9" d="M 89.5,147.5 C 85.6989,150.958 82.6989,154.958 80.5,159.5C 80.1667,159.5 79.8333,159.5 79.5,159.5C 80.0281,156.846 81.0281,154.346 82.5,152C 82.3552,151.228 82.0219,150.561 81.5,150C 84.334,149.677 87.0006,148.843 89.5,147.5 Z"/></g>
<g><path style="opacity:0.999" fill="#fdf1cf" d="M 134.5,152.5 C 145.566,152.455 156.566,153.289 167.5,155C 166.316,156.145 166.316,157.312 167.5,158.5C 161.57,156.955 155.57,155.622 149.5,154.5C 147.059,153.244 144.726,153.244 142.5,154.5C 139.505,154.706 136.838,154.04 134.5,152.5 Z"/></g>
<g><path style="opacity:0.702" fill="#fecc8e" d="M 142.5,154.5 C 144.726,153.244 147.059,153.244 149.5,154.5C 147.338,155.417 145.005,155.417 142.5,154.5 Z"/></g>
<g><path style="opacity:1" fill="#fde9c2" d="M 187.5,152.5 C 189.9,154.296 191.567,156.63 192.5,159.5C 188.88,158.548 187.213,156.215 187.5,152.5 Z"/></g>
<g><path style="opacity:0.349" fill="#facc89" d="M 215.5,155.5 C 216.167,156.167 216.833,156.833 217.5,157.5C 217.5,157.833 217.5,158.167 217.5,158.5C 217.672,159.492 217.338,160.158 216.5,160.5C 215.962,158.883 215.629,157.216 215.5,155.5 Z"/></g>
<g><path style="opacity:0.671" fill="#fae0bc" d="M 167.5,158.5 C 169.989,158.241 171.656,159.241 172.5,161.5C 170.566,160.89 168.899,159.89 167.5,158.5 Z"/></g>
<g><path style="opacity:0.243" fill="#f9c98e" d="M 122.5,184.5 C 120.324,178.479 118.824,172.146 118,165.5C 114.811,162.549 111.311,161.882 107.5,163.5C 106.508,163.672 105.842,163.338 105.5,162.5C 110.393,160.728 114.893,161.395 119,164.5C 120.33,171.136 121.496,177.803 122.5,184.5 Z"/></g>
<g><path style="opacity:0.604" fill="#f9dba3" d="M 172.5,161.5 C 175.167,162.167 176.833,163.833 177.5,166.5C 175.5,165.167 173.833,163.5 172.5,161.5 Z"/></g>
<g><path style="opacity:1" fill="#fbdcb0" d="M 192.5,159.5 C 194.873,161.579 196.206,164.246 196.5,167.5C 193.863,165.518 192.53,162.852 192.5,159.5 Z"/></g>
<g><path style="opacity:0.999" fill="#fffceb" d="M 217.5,158.5 C 218.458,158.953 219.292,159.619 220,160.5C 223.065,173.045 223.232,185.711 220.5,198.5C 220.621,199.894 220.954,201.228 221.5,202.5C 220.575,203.562 219.575,203.562 218.5,202.5C 219.265,199.904 219.599,197.237 219.5,194.5C 220.29,193.391 220.79,192.058 221,190.5C 221.667,184.167 221.667,177.833 221,171.5C 220.428,167.837 219.262,164.503 217.5,161.5C 216.833,161.5 216.5,161.167 216.5,160.5C 217.338,160.158 217.672,159.492 217.5,158.5 Z"/></g>
<g><path style="opacity:1" fill="#fffae5" d="M 78.5,162.5 C 77.3311,187.107 77.3311,211.774 78.5,236.5C 77.1676,224.519 76.5009,212.185 76.5,199.5C 76.5009,186.815 77.1676,174.481 78.5,162.5 Z"/></g>
<g><path style="opacity:0.22" fill="#f6c68a" d="M 217.5,161.5 C 219.262,164.503 220.428,167.837 221,171.5C 221.667,177.833 221.667,184.167 221,190.5C 220.79,192.058 220.29,193.391 219.5,194.5C 221.181,183.351 220.514,172.351 217.5,161.5 Z"/></g>
<g><path style="opacity:0.992" fill="#fce1b8" d="M 196.5,167.5 C 199.834,175.527 200.334,183.86 198,192.5C 197.284,194.879 196.117,196.879 194.5,198.5C 197.75,188.453 198.416,178.119 196.5,167.5 Z"/></g>
<g><path style="opacity:0.188" fill="#f6c48b" d="M 79.5,159.5 C 79.8333,159.5 80.1667,159.5 80.5,159.5C 79.9164,162.67 79.2497,165.837 78.5,169C 79.1823,192.504 79.849,216.004 80.5,239.5C 79.8333,238.5 79.1667,237.5 78.5,236.5C 77.3311,211.774 77.3311,187.107 78.5,162.5C 78.5569,161.391 78.8902,160.391 79.5,159.5 Z"/></g>
<g><path style="opacity:1" fill="#fde9cd" d="M 122.5,184.5 C 125.317,190.129 128.65,195.462 132.5,200.5C 130.567,198.404 128.233,196.904 125.5,196C 122.846,192.673 121.846,188.839 122.5,184.5 Z"/></g>
<g><path style="opacity:0.149" fill="#f7cc91" d="M 177.5,166.5 C 179.335,167.122 180.502,168.456 181,170.5C 184.12,178.458 184.12,186.458 181,194.5C 180.329,195.252 179.496,195.586 178.5,195.5C 182.771,185.645 182.438,175.979 177.5,166.5 Z"/></g>
<g><path style="opacity:0.749" fill="#f6d7a9" d="M 178.5,195.5 C 177.732,198.562 175.732,200.228 172.5,200.5C 174.46,198.844 176.46,197.177 178.5,195.5 Z"/></g>
<g><path style="opacity:0.192" fill="#f7d692" d="M 194.5,198.5 C 194.262,200.404 193.262,201.738 191.5,202.5C 191.738,200.596 192.738,199.262 194.5,198.5 Z"/></g>
<g><path style="opacity:0.737" fill="#f9d2a0" d="M 219.5,194.5 C 219.599,197.237 219.265,199.904 218.5,202.5C 217.857,204.076 216.857,205.41 215.5,206.5C 216.664,202.341 217.997,198.341 219.5,194.5 Z"/></g>
<g><path style="opacity:1" fill="#fef0cf" d="M 190.5,203.5 C 189.089,205.914 187.089,207.581 184.5,208.5C 185.807,207.198 185.807,205.865 184.5,204.5C 186.396,203.534 188.396,203.201 190.5,203.5 Z"/></g>
<g><path style="opacity:0.2" fill="#f8c992" d="M 166.5,202.5 C 165.4,203.558 164.066,204.392 162.5,205C 157.731,206.234 152.897,207.068 148,207.5C 144.024,207.782 140.524,206.782 137.5,204.5C 140.928,205.474 144.428,206.141 148,206.5C 154.264,205.559 160.431,204.225 166.5,202.5 Z"/></g>
<g><path style="opacity:1" fill="#fce7c2" d="M 184.5,208.5 C 182.252,211.393 179.252,213.06 175.5,213.5C 175.414,212.504 175.748,211.671 176.5,211C 179.022,209.659 181.689,208.826 184.5,208.5 Z"/></g>
<g><path style="opacity:0.996" fill="#fbdeae" d="M 215.5,206.5 C 215.759,208.989 214.759,210.656 212.5,211.5C 213.11,209.566 214.11,207.899 215.5,206.5 Z"/></g>
<g><path style="opacity:0.296" fill="#f6c48f" d="M 104.5,163.5 C 103.878,164.627 103.045,165.627 102,166.5C 100.71,188.193 100.21,209.859 100.5,231.5C 99.6646,212.187 99.3313,192.687 99.5,173C 98.7274,168.371 100.394,165.204 104.5,163.5 Z"/></g>
<g><path style="opacity:0.467" fill="#f9cf94" d="M 123.5,213.5 C 125.027,213.427 126.027,214.094 126.5,215.5C 124.973,215.573 123.973,214.906 123.5,213.5 Z"/></g>
<g><path style="opacity:1" fill="#fff8de" d="M 105.5,162.5 C 105.842,163.338 106.508,163.672 107.5,163.5C 105.897,164.596 104.397,165.93 103,167.5C 102.333,188.833 102.333,210.167 103,231.5C 103.273,233.101 103.773,234.601 104.5,236C 107.817,236.498 111.15,236.665 114.5,236.5C 114.833,236.5 115.167,236.5 115.5,236.5C 115.158,237.338 114.492,237.672 113.5,237.5C 111.139,237.674 108.806,238.007 106.5,238.5C 103.054,237.388 101.054,235.055 100.5,231.5C 100.21,209.859 100.71,188.193 102,166.5C 103.045,165.627 103.878,164.627 104.5,163.5C 104.5,162.833 104.833,162.5 105.5,162.5 Z"/></g>
<g><path style="opacity:1" fill="#fff1d7" d="M 175.5,213.5 C 170.341,216.467 165.008,218.134 159.5,218.5C 151.529,219.323 143.529,219.656 135.5,219.5C 131.898,219.308 128.898,217.974 126.5,215.5C 131.891,217.859 137.558,218.859 143.5,218.5C 154.253,217.122 164.92,215.455 175.5,213.5 Z"/></g>
<g><path style="opacity:0.757" fill="#fedeab" d="M 159.5,218.5 C 156.377,219.787 153.043,220.787 149.5,221.5C 146.657,220.229 143.823,220.229 141,221.5C 138.97,221.046 137.137,220.38 135.5,219.5C 143.529,219.656 151.529,219.323 159.5,218.5 Z"/></g>
<g><path style="opacity:0.702" fill="#f6d3a2" d="M 123.5,213.5 C 122.153,212.829 120.986,212.829 120,213.5C 119.241,218.707 119.408,223.874 120.5,229C 120.192,230.459 119.525,231.626 118.5,232.5C 118.305,225.811 118.138,219.144 118,212.5C 120.235,211.02 122.068,211.353 123.5,213.5 Z"/></g>
<g><path style="opacity:1" fill="#fde8c2" d="M 211.5,213.5 C 207.392,219.946 202.059,224.946 195.5,228.5C 195.5,229.5 195.5,230.5 195.5,231.5C 191.767,231.87 188.101,232.537 184.5,233.5C 194.709,228.552 203.709,221.886 211.5,213.5 Z"/></g>
<g><path style="opacity:0.078" fill="#f6d399" d="M 118.5,232.5 C 118.262,234.404 117.262,235.738 115.5,236.5C 115.167,236.5 114.833,236.5 114.5,236.5C 115.402,234.659 116.736,233.326 118.5,232.5 Z"/></g>
<g><path style="opacity:0.361" fill="#f9ce97" d="M 184.5,233.5 C 182.507,235.163 180.174,236.33 177.5,237C 170.278,239.14 162.945,240.64 155.5,241.5C 165.119,239.01 174.786,236.343 184.5,233.5 Z"/></g>
<g><path style="opacity:0.2" fill="#f6c591" d="M 113.5,237.5 C 111.345,239.534 109.012,239.867 106.5,238.5C 108.806,238.007 111.139,237.674 113.5,237.5 Z"/></g>
<g><path style="opacity:0.998" fill="#fdefd2" d="M 78.5,236.5 C 79.1667,237.5 79.8333,238.5 80.5,239.5C 81.7298,241.297 82.3964,243.297 82.5,245.5C 78.9924,243.575 77.659,240.575 78.5,236.5 Z"/></g>
<g><path style="opacity:0.486" fill="#ffdcb0" d="M 149.5,241.5 C 149.389,242.117 149.056,242.617 148.5,243C 144.248,243.075 140.248,243.908 136.5,245.5C 136.574,243.589 137.574,242.422 139.5,242C 142.817,241.502 146.15,241.335 149.5,241.5 Z"/></g>
<g><path style="opacity:0.306" fill="#f3c991" d="M 82.5,245.5 C 83.9063,245.973 84.573,246.973 84.5,248.5C 83.0937,248.027 82.427,247.027 82.5,245.5 Z"/></g>
<g><path style="opacity:0.463" fill="#f7e2aa" d="M 136.5,245.5 C 136.446,247.632 135.446,248.965 133.5,249.5C 134.026,247.77 135.026,246.436 136.5,245.5 Z"/></g>
<g><path style="opacity:0.039" fill="#facf97" d="M 84.5,248.5 C 87.1667,250.5 89.5,252.833 91.5,255.5C 88.1667,254.167 85.8333,251.833 84.5,248.5 Z"/></g>
<g><path style="opacity:0.133" fill="#f7ca89" d="M 91.5,255.5 C 93.0269,255.427 94.0269,256.094 94.5,257.5C 92.9731,257.573 91.9731,256.906 91.5,255.5 Z"/></g>
<g><path style="opacity:0.996" fill="#fff3d8" d="M 133.5,249.5 C 132.565,251.861 131.232,254.028 129.5,256C 119.963,262.118 109.63,263.952 98.5,261.5C 96.812,260.479 95.4787,259.145 94.5,257.5C 96.403,257.796 98.0697,258.463 99.5,259.5C 101.807,261.047 104.473,261.713 107.5,261.5C 109.696,261.495 111.696,261.162 113.5,260.5C 120.989,258.42 127.655,254.754 133.5,249.5 Z"/></g>
<g><path style="opacity:0.171" fill="#fbd196" d="M 99.5,259.5 C 104.119,260.314 108.786,260.647 113.5,260.5C 111.696,261.162 109.696,261.495 107.5,261.5C 104.473,261.713 101.807,261.047 99.5,259.5 Z"/></g>
</svg>
